<svg xmlns="http://www.w3.org/2000/svg" viewBox="0 0 1033.21 245.21"><defs><style>.cls-1{font-size:121.74px;font-family:ProductSans-Bold, Product Sans;}.cls-1,.cls-7{fill:#414141;}.cls-2{font-weight:700;}.cls-3,.cls-4,.cls-5,.cls-6,.cls-7{font-family:ProductSans-Regular, Product Sans;}.cls-3{letter-spacing:-0.02em;}.cls-4{letter-spacing:-0.01em;}.cls-5{letter-spacing:0em;}.cls-6{letter-spacing:0em;}.cls-7{font-size:132.58px;letter-spacing:-0.05em;}.cls-8{letter-spacing:0em;}.cls-9{letter-spacing:0em;}.cls-10{letter-spacing:0em;}.cls-11{letter-spacing:-0.01em;}.cls-12{fill:#ea4335;}.cls-13{fill:#4285f4;}.cls-14{fill:#34a853;}.cls-15{fill:#fbbc05;}.cls-16{fill:#139f5b;}.cls-17{fill:#ffc109;}.cls-18{fill:#dd5044;}.cls-19{fill:#4688f4;}.cls-20{opacity:0.06;}</style></defs><title>Asset 10</title><g id="Layer_2" data-name="Layer 2"><g id="Layer_1-2" data-name="Layer 1"><text class="cls-1" transform="translate(409.29 104.45)"><tspan class="cls-2">GDG</tspan><tspan class="cls-3" x="284.75" y="0"> </tspan><tspan class="cls-4" x="309.1" y="0">C</tspan><tspan class="cls-5" x="396.63" y="0">lou</tspan><tspan class="cls-6" x="553.8" y="0">d</tspan></text><text class="cls-7" transform="translate(412.54 211.67)">V<tspan class="cls-8" x="77.16" y="0">an</tspan><tspan class="cls-9" x="216.63" y="0">co</tspan><tspan class="cls-10" x="358.76" y="0">u</tspan><tspan class="cls-11" x="430.62" y="0">v</tspan><tspan class="cls-8" x="494.65" y="0">er</tspan></text><path class="cls-12" d="M155.65,69.61l7.83.13,21.27-21.27,1-9A95.56,95.56,0,0,0,30,85.91c2.32-1.62,7.29-.4,7.29-.4l42.51-7S82,74.9,83.09,75.11a53,53,0,0,1,72.59-5.39Z"/><path class="cls-13" d="M214.63,86a95.73,95.73,0,0,0-28.85-46.51L155.65,69.58a53.08,53.08,0,0,1,19.82,41.33v5.4a26.56,26.56,0,1,1,0,53.12H122.32l-5.4,5.4v31.88l5.4,5.4h53.12A69.05,69.05,0,0,0,214.63,86.18Z"/><path class="cls-14" d="M69.17,211.89h53.09V169.37H69.17A26.46,26.46,0,0,1,58.23,167l-7.66,2.35L29.3,190.62l-1.84,7a68.78,68.78,0,0,0,41.71,14.23Z"/><path class="cls-15" d="M69.17,73.74A69.05,69.05,0,0,0,27.46,197.91L58.26,167a26.56,26.56,0,1,1,35.09-35.09l30.8-30.8a69,69,0,0,0-55-27.37Z"/><path class="cls-16" d="M245.53,207.42l70-126,25.93,14.41-64,116.06H248.16A3,3,0,0,1,245.53,207.42Z"/><path class="cls-17" d="M277.48,211.89l44.9-81.59,25.93,14.41-34.7,64a6,6,0,0,1-5.29,3.15Z"/><path class="cls-18" d="M352,141.73l-73-126.49h30.87a6,6,0,0,1,5.2,3l50.51,86.83a14.36,14.36,0,0,1-.16,14.73Z"/><path class="cls-19" d="M334.08,171,247.18,19.75a3,3,0,0,1,2.61-4.51h29.13l73,126.48Z"/><polygon class="cls-20" points="334.08 170.97 291.94 123.93 299.37 110.56 334.08 170.97"/></g></g></svg>